<svg width="83" height="21" viewBox="0 0 83 21" fill="none" xmlns="http://www.w3.org/2000/svg">
<g clip-path="url(#clip0_251_15310)">
<path d="M18.1184 18.7883H3.14555C1.40858 18.7883 0 17.3797 0 15.6427V0.669922L4.52958 4.06712V11.1131C4.52958 12.8501 5.93816 14.2587 7.67516 14.2587H13.5887L18.1184 18.7883Z" fill="#F2F2F2"/>
<path d="M58.8801 8.28112V15.6417C58.8801 17.3787 57.4716 18.7873 55.7345 18.7873H43.9074C42.1703 18.7873 40.7617 17.3787 40.7617 15.6417V3.81449C40.7617 2.07752 42.1703 0.668945 43.9074 0.668945H58.8801L54.3505 5.19852H46.8641C45.9953 5.19852 45.2914 5.9025 45.2914 6.77132V12.6849C45.2914 13.5538 45.9953 14.2577 46.8641 14.2577H54.3505V11.4267H48.0594L51.205 8.28112H58.8801Z" fill="#F2F2F2"/>
<path d="M34.4736 0.668945H22.5206C20.7835 0.668945 19.375 2.10205 19.375 3.86985V15.5858C19.375 17.3536 20.7835 18.7866 22.5206 18.7866H34.4736C36.2106 18.7866 37.6191 17.3536 37.6191 15.5858V3.86985C37.6191 2.10205 36.2106 0.668945 34.4736 0.668945ZM33.1525 12.8913C33.1525 13.7752 32.4485 14.4917 31.5797 14.4917H25.4484C24.5796 14.4917 23.8757 13.7752 23.8757 12.8913V6.87949C23.8757 5.9956 24.5796 5.27905 25.4484 5.27905H31.5797C32.4485 5.27905 33.1525 5.9956 33.1525 6.87949V12.8913Z" fill="#F2F2F2"/>
<path d="M76.0872 1.1416H81.7285L76.1929 9.02651H70.8789L76.0872 1.1416Z" stroke="url(#paint0_linear_251_15310)" stroke-width="0.946187"/>
<path d="M76.1035 18.2375H81.7281L76.24 10.3525H70.9414L76.1035 18.2375Z" stroke="url(#paint1_linear_251_15310)" stroke-width="0.946187"/>
<path fill-rule="evenodd" clip-rule="evenodd" d="M63.5859 0.668945H69.2105L74.4148 9.50001H69.1161L63.5859 0.668945ZM69.7781 18.7411H63.5966L69.1161 9.87853H74.4148L69.7781 18.7411Z" fill="url(#paint2_linear_251_15310)"/>
<mask id="mask0_251_15310" style="mask-type:luminance" maskUnits="userSpaceOnUse" x="63" y="0" width="12" height="19">
<path fill-rule="evenodd" clip-rule="evenodd" d="M63.5859 0.668945H69.2105L74.4148 9.50001H69.1161L63.5859 0.668945ZM69.7781 18.7411H63.5966L69.1161 9.87853H74.4148L69.7781 18.7411Z" fill="url(#paint3_linear_251_15310)"/>
</mask>
<g mask="url(#mask0_251_15310)">
<path d="M69.211 0.669524L69.2659 0.637499L69.2472 0.606445H69.211V0.669524ZM63.5866 0.669524V0.606445H63.4727L63.5332 0.703001L63.5866 0.669524ZM74.4153 9.50062V9.56367H74.5257L74.4695 9.46856L74.4153 9.50062ZM69.1167 9.50062L69.0631 9.53409L69.0818 9.56367H69.1167V9.50062ZM63.5973 18.7417L63.5438 18.7083L63.4837 18.8048H63.5973V18.7417ZM69.7793 18.7417V18.8048H69.8175L69.8349 18.771L69.7793 18.7417ZM69.1167 9.87907V9.81602H69.0818L69.0631 9.84574L69.1167 9.87907ZM74.4153 9.87907L74.4715 9.90839L74.5197 9.81602H74.4153V9.87907ZM69.211 0.606445H63.5866V0.732607H69.211V0.606445ZM74.4695 9.46856L69.2659 0.637499L69.1568 0.701549L74.3611 9.53268L74.4695 9.46856ZM69.1167 9.56367H74.4153V9.43757H69.1167V9.56367ZM63.5332 0.703001L69.0631 9.53409L69.1702 9.46715L63.6401 0.636048L63.5332 0.703001ZM63.5973 18.8048H69.7793V18.6786H63.5973V18.8048ZM69.0631 9.84574L63.5438 18.7083L63.6508 18.7751L69.1702 9.91247L69.0631 9.84574ZM74.4153 9.81602H69.1167V9.94219H74.4153V9.81602ZM69.8349 18.771L74.4715 9.90839L74.3597 9.84982L69.7231 18.7125L69.8349 18.771Z" fill="url(#paint4_linear_251_15310)"/>
</g>
</g>
<defs>
<linearGradient id="paint0_linear_251_15310" x1="70.5797" y1="5.15086" x2="81.7285" y2="5.15086" gradientUnits="userSpaceOnUse">
<stop stop-color="#27F9BB"/>
<stop offset="1" stop-color="#07F2C7"/>
</linearGradient>
<linearGradient id="paint1_linear_251_15310" x1="70.6449" y1="14.2282" x2="81.7281" y2="14.2282" gradientUnits="userSpaceOnUse">
<stop stop-color="#27F9BB"/>
<stop offset="1" stop-color="#07F2C7"/>
</linearGradient>
<linearGradient id="paint2_linear_251_15310" x1="74.7126" y1="9.85818" x2="63.5859" y2="9.85818" gradientUnits="userSpaceOnUse">
<stop stop-color="#27F9BB"/>
<stop offset="1" stop-color="#07F2C7"/>
</linearGradient>
<linearGradient id="paint3_linear_251_15310" x1="74.7126" y1="9.85818" x2="63.5859" y2="9.85818" gradientUnits="userSpaceOnUse">
<stop stop-color="#27F9BB"/>
<stop offset="1" stop-color="#07F2C7"/>
</linearGradient>
<linearGradient id="paint4_linear_251_15310" x1="74.7138" y1="9.85879" x2="63.5866" y2="9.85879" gradientUnits="userSpaceOnUse">
<stop stop-color="#27F9BB"/>
<stop offset="1" stop-color="#07F2C7"/>
</linearGradient>
<clipPath id="clip0_251_15310">
<rect width="83" height="20.0806" fill="white"/>
</clipPath>
</defs>
</svg>
